<?xml version="1.0" encoding="UTF-8"?>
<svg xmlns="http://www.w3.org/2000/svg" xmlns:xlink="http://www.w3.org/1999/xlink" width="365pt" height="90.91pt" viewBox="0 0 365 90.91" version="1.1">
<g id="surface1">
<path style=" stroke:none;fill-rule:nonzero;fill:rgb(28.199768%,48.999023%,65.098572%);fill-opacity:1;" d="M 273.859375 18.816406 L 273.859375 10.859375 L 275.324219 11.496094 L 276.792969 12.128906 L 276.847656 26.769531 L 273.859375 26.769531 Z M 268.441406 17.644531 C 268.441406 12.613281 268.484375 8.519531 268.535156 8.519531 C 268.589844 8.519531 269.261719 8.816406 270.027344 9.179688 L 271.425781 9.84375 L 271.425781 26.769531 L 268.441406 26.769531 Z M 263.019531 16.324219 L 263.019531 5.875 L 264.488281 6.570313 L 265.953125 7.261719 L 266.007813 26.769531 L 263.019531 26.769531 Z M 246.097656 17 L 246.097656 7.226563 L 247.535156 6.546875 C 248.328125 6.171875 249 5.867188 249.03125 5.867188 C 249.058594 5.867188 249.085938 10.570313 249.085938 16.320313 L 249.085938 26.769531 L 246.097656 26.769531 Z M 240.679688 18.21875 L 240.679688 9.667969 L 241.316406 9.410156 C 241.664063 9.265625 242.335938 8.957031 242.808594 8.722656 L 243.664063 8.296875 L 243.664063 26.769531 L 240.679688 26.769531 Z M 235.257813 19.375 L 235.257813 11.980469 L 236.335938 11.53125 C 236.929688 11.285156 237.601563 11.003906 237.832031 10.90625 L 238.246094 10.730469 L 238.246094 26.769531 L 235.257813 26.769531 Z M 229.730469 20.421875 L 229.730469 14.070313 L 230.53125 13.769531 C 230.972656 13.601563 231.628906 13.351563 231.988281 13.207031 C 232.347656 13.0625 232.660156 12.945313 232.679688 12.945313 C 232.699219 12.945313 232.714844 16.054688 232.714844 19.859375 L 232.714844 26.769531 L 229.730469 26.769531 Z M 224.308594 21.378906 L 224.3125 15.988281 L 225.804688 15.476563 L 227.296875 14.96875 L 227.296875 26.769531 L 224.308594 26.769531 L 224.3125 21.378906 Z M 218.890625 22.242188 L 218.890625 17.710938 L 220.339844 17.253906 C 221.132813 17.003906 221.804688 16.820313 221.832031 16.84375 C 221.855469 16.871094 221.875 19.113281 221.875 21.832031 L 221.875 26.769531 L 218.890625 26.769531 Z M 213.46875 23.019531 L 213.46875 19.265625 L 213.828125 19.15625 C 214.320313 19.003906 216.304688 18.476563 216.386719 18.476563 C 216.425781 18.476563 216.457031 20.339844 216.457031 22.621094 L 216.457031 26.769531 L 213.46875 26.769531 Z M 208.050781 23.6875 L 208.050781 20.605469 L 209.429688 20.257813 C 210.1875 20.070313 210.859375 19.914063 210.921875 19.914063 C 210.996094 19.914063 211.035156 21.070313 211.035156 23.34375 L 211.035156 26.769531 L 208.050781 26.769531 Z M 202.519531 24.242188 L 202.519531 21.714844 L 203.765625 21.46875 C 204.449219 21.335938 205.121094 21.199219 205.257813 21.164063 L 205.507813 21.105469 L 205.507813 26.769531 L 202.519531 26.769531 Z M 197.101563 24.683594 L 197.101563 22.601563 L 198.289063 22.40625 C 198.941406 22.300781 199.613281 22.1875 199.78125 22.15625 L 200.085938 22.097656 L 200.085938 26.769531 L 197.101563 26.769531 Z M 191.679688 25 C 191.679688 23.660156 191.714844 23.230469 191.820313 23.230469 C 192.105469 23.226563 193.867188 23.023438 194.257813 22.953125 L 194.667969 22.875 L 194.667969 26.769531 L 191.679688 26.769531 Z M 186.261719 25.230469 L 186.261719 23.6875 L 186.730469 23.628906 C 186.988281 23.597656 187.660156 23.542969 188.222656 23.507813 L 189.246094 23.445313 L 189.246094 26.769531 L 186.261719 26.769531 Z M 180.730469 25.277344 L 180.730469 23.785156 L 183.71875 23.785156 L 183.71875 26.769531 L 180.730469 26.769531 Z M 175.3125 25.152344 L 175.3125 23.53125 L 175.824219 23.601563 C 176.105469 23.640625 176.804688 23.671875 177.371094 23.671875 L 178.40625 23.671875 L 178.40625 26.769531 L 175.3125 26.769531 Z M 169.890625 24.9375 L 169.890625 23.101563 L 170.304688 23.164063 C 170.535156 23.195313 171.117188 23.253906 171.605469 23.292969 C 173 23.398438 172.878906 23.222656 172.878906 25.117188 L 172.878906 26.769531 L 169.890625 26.769531 Z M 164.472656 24.613281 C 164.472656 22.632813 164.488281 22.457031 164.664063 22.457031 C 164.769531 22.457031 165.441406 22.539063 166.15625 22.640625 L 167.457031 22.824219 L 167.457031 26.769531 L 164.472656 26.769531 Z M 158.941406 24.117188 C 158.941406 22.65625 158.96875 21.460938 159 21.460938 C 159.121094 21.460938 161.65625 21.917969 161.84375 21.972656 C 162.019531 22.023438 162.039063 22.238281 162.039063 24.398438 L 162.039063 26.769531 L 158.941406 26.769531 Z M 153.632813 23.507813 C 153.632813 21.714844 153.65625 20.246094 153.691406 20.246094 C 153.722656 20.246094 154.394531 20.398438 155.183594 20.585938 L 156.617188 20.925781 L 156.617188 26.769531 L 153.632813 26.769531 Z M 148.101563 22.789063 C 148.101563 20.597656 148.140625 18.808594 148.183594 18.808594 C 148.230469 18.808594 148.890625 18.976563 149.648438 19.179688 L 151.03125 19.546875 L 151.0625 23.160156 L 151.089844 26.769531 L 148.101563 26.769531 Z M 142.683594 21.960938 C 142.683594 19.3125 142.710938 17.148438 142.746094 17.148438 C 142.785156 17.148438 143.457031 17.351563 144.242188 17.597656 L 145.667969 18.046875 L 145.667969 26.769531 L 142.683594 26.769531 Z M 137.261719 21.019531 C 137.261719 17.855469 137.292969 15.269531 137.328125 15.269531 C 137.363281 15.269531 138.035156 15.5 138.820313 15.78125 L 140.246094 16.296875 L 140.246094 26.769531 L 137.261719 26.769531 Z M 131.84375 19.96875 L 131.84375 13.167969 L 132.535156 13.433594 C 132.914063 13.578125 133.585938 13.839844 134.027344 14.011719 L 134.828125 14.328125 L 134.828125 26.769531 L 131.84375 26.769531 Z M 126.3125 18.8125 C 126.3125 11.273438 126.320313 10.855469 126.507813 10.925781 C 126.613281 10.964844 127.296875 11.253906 128.027344 11.570313 L 129.355469 12.140625 L 129.382813 19.457031 L 129.410156 26.769531 L 126.3125 26.769531 Z M 120.890625 17.59375 L 120.890625 8.417969 L 121.972656 8.925781 C 122.5625 9.203125 123.234375 9.511719 123.464844 9.613281 L 123.878906 9.792969 L 123.878906 26.769531 L 120.894531 26.769531 L 120.894531 17.59375 Z M 115.472656 16.320313 C 115.472656 10.570313 115.496094 5.867188 115.53125 5.867188 C 115.5625 5.867188 116.234375 6.191406 117.023438 6.585938 L 118.460938 7.304688 L 118.460938 26.769531 L 115.472656 26.769531 Z M 98.554688 17.007813 L 98.558594 7.25 L 100.101563 6.507813 L 101.648438 5.765625 L 101.648438 26.769531 L 98.550781 26.769531 Z M 93.128906 18.199219 C 93.128906 12.480469 93.167969 9.625 93.242188 9.625 C 93.304688 9.625 93.914063 9.375 94.597656 9.066406 C 95.28125 8.757813 95.902344 8.476563 95.976563 8.445313 C 96.089844 8.398438 96.117188 10.265625 96.117188 17.578125 L 96.117188 26.769531 L 93.128906 26.769531 Z M 87.710938 19.386719 L 87.714844 12.003906 L 89.207031 11.378906 L 90.695313 10.753906 L 90.695313 26.769531 L 87.710938 26.769531 Z M 252.515625 13.71875 L 252.515625 0.00390625 L 259.371094 0.00390625 L 259.371094 27.433594 L 252.515625 27.433594 Z M 105.1875 13.71875 L 105.1875 0.00390625 L 112.042969 0.00390625 L 112.042969 27.433594 L 105.1875 27.433594 Z M 359.421875 44.234375 C 360.054688 44.074219 360.355469 43.703125 360.355469 43.089844 C 360.355469 42.257813 359.742188 41.921875 358.226563 41.921875 L 357.367188 41.921875 L 357.367188 44.355469 L 358.148438 44.355469 C 358.578125 44.355469 359.152344 44.300781 359.421875 44.234375 Z M 356.039063 44.625 L 356.039063 41.128906 L 358.0625 41.167969 C 359.964844 41.203125 360.117188 41.222656 360.621094 41.480469 C 361.398438 41.882813 361.625 42.234375 361.613281 43.023438 C 361.605469 43.871094 361.300781 44.371094 360.585938 44.710938 L 360.050781 44.964844 L 360.800781 46.542969 L 361.554688 48.117188 L 360.242188 48.117188 L 359.5 46.625 L 358.753906 45.132813 L 357.367188 45.132813 L 357.367188 48.117188 L 356.039063 48.117188 Z M 360.164063 49.996094 C 361.585938 49.558594 362.972656 48.359375 363.597656 47.035156 C 363.933594 46.316406 363.945313 46.242188 363.945313 44.800781 C 363.949219 43.488281 363.914063 43.226563 363.6875 42.660156 C 363.09375 41.183594 361.769531 39.953125 360.28125 39.492188 C 358.859375 39.054688 357.015625 39.25 355.785156 39.96875 C 355.066406 40.390625 353.960938 41.632813 353.578125 42.449219 C 352.210938 45.367188 353.769531 48.917969 356.882813 49.988281 C 357.769531 50.292969 359.191406 50.296875 360.164063 49.996094 Z M 357.105469 50.824219 C 356.09375 50.570313 355.179688 50.019531 354.25 49.109375 C 352.851563 47.738281 352.316406 46.34375 352.417969 44.359375 C 352.480469 43.15625 352.726563 42.40625 353.371094 41.410156 C 354.242188 40.074219 355.414063 39.1875 356.855469 38.769531 C 357.777344 38.503906 359.820313 38.582031 360.742188 38.917969 C 362.144531 39.429688 363.460938 40.621094 364.15625 42.003906 C 365.050781 43.78125 364.953125 46.300781 363.921875 47.9375 C 363.222656 49.046875 361.828125 50.179688 360.59375 50.636719 C 359.660156 50.984375 358.070313 51.066406 357.105469 50.824219 Z M 93.90625 62.550781 L 93.90625 61.058594 L 106.183594 61.058594 L 106.183594 64.046875 L 93.90625 64.046875 Z M 347.910156 69.46875 C 345.746094 69.078125 344.679688 68.550781 344.113281 67.585938 L 343.820313 67.085938 L 343.785156 62.03125 C 343.75 56.277344 343.765625 56.15625 344.554688 55.261719 C 345.085938 54.652344 346.199219 54.085938 347.414063 53.800781 C 348.15625 53.628906 349.101563 53.601563 356.621094 53.566406 L 365 53.527344 L 365 56.957031 L 358.335938 56.988281 C 352.21875 57.019531 351.644531 57.039063 351.316406 57.214844 C 350.808594 57.492188 350.730469 57.707031 350.730469 58.839844 L 350.730469 59.84375 L 365 59.84375 L 365 63.269531 L 350.730469 63.269531 L 350.730469 64.382813 C 350.730469 65.40625 350.753906 65.515625 350.996094 65.757813 C 351.488281 66.25 351.757813 66.265625 358.558594 66.261719 L 365 66.257813 L 365 69.6875 L 357.007813 69.675781 C 349.820313 69.667969 348.90625 69.648438 347.910156 69.46875 Z M 321.144531 69.566406 C 318.570313 69.179688 316.773438 68.226563 316.453125 67.070313 C 316.378906 66.796875 316.335938 64.855469 316.335938 61.652344 C 316.335938 57.46875 316.359375 56.585938 316.5 56.1875 C 317.042969 54.652344 318.449219 53.9375 321.476563 53.652344 C 322.171875 53.585938 325.84375 53.539063 330.019531 53.539063 L 337.347656 53.539063 L 337.347656 56.964844 L 330.796875 56.96875 C 326.605469 56.96875 324.09375 57.007813 323.828125 57.082031 C 323.601563 57.144531 323.363281 57.292969 323.304688 57.40625 C 323.234375 57.535156 323.191406 59.140625 323.191406 61.652344 L 323.191406 65.6875 L 323.550781 65.945313 C 323.90625 66.199219 323.945313 66.203125 327.613281 66.238281 C 331.402344 66.273438 331.96875 66.226563 332.398438 65.84375 C 332.574219 65.6875 332.59375 65.40625 332.59375 63.089844 L 332.59375 60.507813 L 339.449219 60.507813 L 339.449219 63.527344 C 339.449219 66.003906 339.417969 66.644531 339.273438 67.066406 C 338.953125 68.007813 337.703125 68.863281 335.878906 69.386719 C 335.113281 69.605469 334.796875 69.617188 328.445313 69.640625 C 324.796875 69.652344 321.511719 69.621094 321.144531 69.566406 Z M 304.535156 66.03125 C 305.023438 65.644531 305.0625 65.261719 305.027344 61.226563 L 304.996094 57.464844 L 304.554688 57.242188 C 304.136719 57.035156 303.851563 57.019531 299.714844 56.988281 L 295.316406 56.953125 L 295.316406 66.257813 L 299.78125 66.257813 C 304.117188 66.257813 304.257813 66.25 304.535156 66.03125 Z M 288.460938 61.617188 L 288.460938 53.539063 L 297.335938 53.539063 C 302.613281 53.539063 306.617188 53.585938 307.207031 53.652344 C 309.621094 53.925781 311.097656 54.625 311.722656 55.792969 C 311.960938 56.238281 311.964844 56.347656 312 61.167969 C 312.027344 65.496094 312.011719 66.175781 311.847656 66.785156 C 311.519531 68.019531 310.558594 68.835938 308.8125 69.371094 L 307.984375 69.625 L 288.460938 69.695313 Z M 277.179688 61.613281 L 277.179688 53.539063 L 284.148438 53.539063 L 284.148438 69.6875 L 277.179688 69.6875 Z M 250.191406 61.613281 L 250.191406 53.539063 L 259.015625 53.539063 C 264.511719 53.539063 268.191406 53.582031 268.777344 53.652344 C 271.121094 53.945313 272.425781 54.570313 272.996094 55.683594 C 273.199219 56.078125 273.21875 56.3125 273.203125 58.386719 C 273.1875 60.511719 273.171875 60.691406 272.945313 61.105469 C 272.617188 61.695313 271.839844 62.265625 270.851563 62.632813 C 269.636719 63.089844 269.097656 63.183594 267.253906 63.257813 L 265.570313 63.324219 L 269.191406 66.273438 C 271.179688 67.894531 272.933594 69.324219 273.085938 69.449219 L 273.363281 69.679688 L 265.289063 69.679688 L 261.582031 66.632813 C 259.546875 64.957031 257.792969 63.480469 257.6875 63.347656 C 257.269531 62.820313 257.542969 61.726563 258.222656 61.207031 C 259.003906 60.613281 259.738281 60.480469 262.578125 60.433594 C 265.578125 60.378906 265.773438 60.359375 266.097656 60.058594 C 266.316406 59.855469 266.339844 59.71875 266.339844 58.730469 C 266.339844 57.796875 266.308594 57.597656 266.128906 57.421875 C 265.746094 57.039063 264.933594 56.964844 260.96875 56.964844 L 257.160156 56.964844 L 257.160156 69.6875 L 250.191406 69.6875 Z M 238.753906 59.476563 C 238.972656 59.21875 239.019531 59.046875 239.019531 58.476563 C 239.019531 57.710938 238.863281 57.394531 238.355469 57.132813 C 238.089844 56.992188 237.34375 56.964844 233.828125 56.964844 L 229.617188 56.964844 L 229.617188 59.847656 L 238.484375 59.785156 Z M 238.296875 66.101563 C 238.808594 65.886719 238.925781 65.613281 238.886719 64.691406 C 238.859375 63.992188 238.820313 63.878906 238.570313 63.691406 C 238.121094 63.355469 237.097656 63.273438 233.238281 63.273438 L 229.617188 63.269531 L 229.617188 66.257813 L 233.769531 66.257813 C 237.097656 66.257813 237.996094 66.226563 238.296875 66.101563 Z M 222.648438 61.605469 L 222.648438 53.527344 L 232.246094 53.566406 C 242.726563 53.609375 242.636719 53.605469 244.109375 54.269531 C 245.511719 54.902344 245.800781 55.542969 245.746094 57.886719 C 245.710938 59.429688 245.703125 59.488281 245.378906 60.007813 C 244.996094 60.621094 244.199219 61.214844 243.464844 61.429688 L 242.957031 61.578125 L 243.59375 61.777344 C 244.742188 62.136719 245.464844 62.746094 245.75 63.589844 C 245.917969 64.085938 245.914063 66.496094 245.746094 67.0625 C 245.671875 67.304688 245.375 67.761719 245.085938 68.082031 C 244.445313 68.78125 243.613281 69.179688 242.191406 69.472656 C 241.242188 69.667969 240.5625 69.683594 231.914063 69.683594 L 222.648438 69.6875 Z M 181.503906 61.667969 L 181.503906 53.539063 L 188.472656 53.539063 L 188.472656 59.84375 L 198.316406 59.84375 L 198.316406 53.539063 L 205.285156 53.539063 L 205.285156 69.796875 L 198.316406 69.796875 L 198.316406 63.382813 L 188.476563 63.382813 L 188.445313 66.5625 L 188.417969 69.742188 L 184.960938 69.769531 L 181.503906 69.800781 Z M 162.257813 69.722656 C 159.074219 69.230469 157.539063 68.550781 156.917969 67.359375 L 156.609375 66.769531 L 156.671875 56.128906 L 156.957031 55.582031 C 157.300781 54.914063 158.113281 54.265625 158.886719 54.042969 C 160.34375 53.625 160.53125 53.617188 169.253906 53.570313 L 177.855469 53.523438 L 177.855469 56.964844 L 171.355469 56.96875 C 166.996094 56.96875 164.714844 57.007813 164.414063 57.089844 C 163.539063 57.328125 163.585938 57.082031 163.589844 61.433594 C 163.589844 65.703125 163.59375 65.734375 164.253906 66.0625 C 164.605469 66.242188 165.175781 66.257813 171.246094 66.257813 L 177.855469 66.257813 L 177.855469 69.796875 L 170.195313 69.78125 C 165.980469 69.773438 162.410156 69.746094 162.257813 69.722656 Z M 136.839844 69.675781 C 134.910156 69.492188 133.238281 68.980469 132.359375 68.3125 C 132.144531 68.144531 131.851563 67.777344 131.710938 67.492188 L 131.453125 66.976563 L 131.453125 61.832031 C 131.453125 58.003906 131.492188 56.570313 131.59375 56.230469 C 131.914063 55.175781 133.050781 54.335938 134.828125 53.832031 C 135.636719 53.605469 135.898438 53.597656 144.148438 53.5625 L 152.636719 53.527344 L 152.636719 56.957031 L 146.027344 56.988281 C 139.453125 57.019531 139.417969 57.023438 138.964844 57.265625 C 138.710938 57.398438 138.476563 57.589844 138.4375 57.691406 C 138.398438 57.789063 138.367188 58.3125 138.367188 58.855469 L 138.367188 59.84375 L 152.636719 59.84375 L 152.636719 63.382813 L 138.367188 63.382813 L 138.367188 64.316406 C 138.367188 65.398438 138.472656 65.695313 138.957031 65.988281 C 139.289063 66.191406 139.632813 66.203125 145.972656 66.234375 L 152.636719 66.265625 L 152.636719 69.796875 L 145.199219 69.78125 C 141.105469 69.773438 137.347656 69.726563 136.839844 69.675781 Z M 114.808594 63.382813 L 114.808594 56.964844 L 107.839844 56.964844 L 107.839844 53.539063 L 128.855469 53.539063 L 128.855469 56.964844 L 121.777344 56.964844 L 121.777344 69.796875 L 114.808594 69.796875 Z M 66.804688 61.667969 L 66.804688 53.539063 L 73.773438 53.539063 L 73.773438 59.84375 L 83.730469 59.84375 L 83.730469 53.539063 L 90.699219 53.539063 L 90.667969 61.640625 L 90.640625 69.742188 L 87.183594 69.769531 L 83.730469 69.800781 L 83.730469 63.382813 L 73.773438 63.382813 L 73.773438 69.796875 L 66.804688 69.796875 Z M 45.515625 69.722656 C 41.84375 69.417969 39.675781 68.390625 39.410156 66.828125 C 39.359375 66.542969 39.320313 64.148438 39.320313 61.5 C 39.320313 56.296875 39.324219 56.246094 39.933594 55.363281 C 40.542969 54.472656 41.964844 53.902344 44.171875 53.65625 C 44.820313 53.582031 48.195313 53.539063 52.863281 53.539063 L 60.5 53.539063 L 60.5 56.964844 L 53.949219 56.96875 C 49.78125 56.96875 47.246094 57.007813 46.984375 57.082031 C 46.265625 57.28125 46.28125 57.167969 46.34375 61.710938 C 46.40625 66.230469 46.351563 65.925781 47.117188 66.144531 C 47.648438 66.296875 54.238281 66.289063 54.785156 66.140625 C 55.640625 65.902344 55.636719 65.917969 55.636719 62.992188 L 55.636719 60.390625 L 59.089844 60.421875 L 62.546875 60.449219 L 62.546875 63.4375 C 62.546875 66.953125 62.5 67.226563 61.734375 67.96875 C 60.828125 68.851563 59.234375 69.457031 57.238281 69.683594 C 56.347656 69.78125 46.644531 69.816406 45.515625 69.722656 Z M 28.09375 61.667969 L 28.09375 53.539063 L 35.0625 53.539063 L 35.0625 69.796875 L 28.09375 69.796875 Z M 0 61.667969 L 0 53.539063 L 6.96875 53.539063 L 6.96875 59.84375 L 16.8125 59.84375 L 16.8125 53.539063 L 23.78125 53.539063 L 23.78125 69.796875 L 16.8125 69.796875 L 16.8125 63.382813 L 6.96875 63.382813 L 6.96875 69.796875 L 0 69.796875 Z M 359.800781 89.148438 L 359.800781 87.484375 L 358.363281 84.542969 C 357.574219 82.921875 356.925781 81.578125 356.925781 81.554688 C 356.925781 81.53125 357.457031 81.527344 358.105469 81.542969 L 359.289063 81.574219 L 359.945313 83.070313 C 360.304688 83.890625 360.6875 84.8125 360.796875 85.117188 C 360.957031 85.570313 361.007813 85.628906 361.074219 85.445313 C 361.117188 85.324219 361.507813 84.390625 361.941406 83.375 L 362.734375 81.519531 L 363.8125 81.519531 C 364.402344 81.519531 364.890625 81.546875 364.890625 81.578125 C 364.890625 81.609375 364.21875 82.976563 363.394531 84.617188 L 361.902344 87.601563 L 361.902344 90.8125 L 359.800781 90.8125 Z M 336.90625 86.167969 L 336.90625 81.519531 L 338.039063 81.519531 L 339.171875 81.523438 L 341.21875 84.664063 L 343.265625 87.808594 L 343.296875 84.664063 L 343.324219 81.519531 L 345.3125 81.519531 L 345.3125 90.8125 L 343.15625 90.8125 L 341.054688 87.601563 L 338.953125 84.394531 L 338.921875 87.601563 L 338.894531 90.8125 L 336.90625 90.8125 Z M 321.753906 87.09375 C 321.753906 87.058594 321.507813 86.25 321.207031 85.296875 C 320.90625 84.347656 320.640625 83.46875 320.613281 83.34375 C 320.5625 83.132813 320.5625 83.132813 320.550781 83.339844 C 320.542969 83.457031 320.285156 84.335938 319.984375 85.292969 C 319.679688 86.246094 319.429688 87.058594 319.429688 87.09375 C 319.429688 87.132813 319.953125 87.160156 320.59375 87.160156 C 321.230469 87.160156 321.753906 87.132813 321.753906 87.09375 Z M 317.71875 86.195313 L 319.402344 81.574219 L 321.90625 81.574219 L 323.542969 86.167969 C 324.441406 88.691406 325.179688 90.769531 325.179688 90.785156 C 325.179688 90.800781 324.671875 90.8125 324.046875 90.8125 L 322.914063 90.8125 L 322.25 88.765625 L 318.945313 88.765625 L 318.613281 89.789063 L 318.277344 90.8125 L 316.039063 90.8125 Z M 302.304688 85.761719 C 303.148438 85.269531 303.09375 83.703125 302.222656 83.308594 C 302.070313 83.238281 301.597656 83.179688 301.175781 83.179688 L 300.40625 83.179688 L 300.40625 86.085938 L 301.171875 86.03125 C 301.640625 85.996094 302.078125 85.894531 302.304688 85.761719 Z M 298.304688 86.167969 L 298.304688 81.519531 L 300.328125 81.519531 C 303.3125 81.519531 304.195313 81.820313 304.785156 83.027344 C 305.144531 83.761719 305.191406 84.953125 304.886719 85.695313 C 304.417969 86.847656 302.984375 87.605469 301.277344 87.605469 L 300.40625 87.605469 L 300.40625 90.8125 L 298.304688 90.8125 Z M 275.078125 86.167969 L 275.078125 81.519531 L 278.121094 81.519531 L 279.144531 84.480469 C 279.703125 86.105469 280.195313 87.601563 280.234375 87.796875 C 280.273438 87.996094 280.335938 88.15625 280.371094 88.152344 C 280.410156 88.148438 280.886719 86.820313 281.425781 85.195313 C 281.96875 83.570313 282.480469 82.078125 282.5625 81.878906 L 282.710938 81.519531 L 285.695313 81.519531 L 285.695313 90.8125 L 283.585938 90.8125 L 283.617188 87.101563 C 283.636719 85.0625 283.617188 83.484375 283.578125 83.589844 C 283.542969 83.699219 283.335938 84.335938 283.117188 85.003906 C 282.898438 85.675781 282.363281 87.253906 281.929688 88.515625 L 281.136719 90.8125 L 279.445313 90.8125 L 278.3125 87.621094 C 277.691406 85.867188 277.128906 84.175781 277.0625 83.863281 C 276.992188 83.546875 276.929688 83.289063 276.921875 83.289063 C 276.910156 83.289063 276.917969 84.984375 276.9375 87.050781 L 276.972656 90.8125 L 275.078125 90.8125 Z M 204.730469 89.207031 L 204.730469 87.601563 L 203.886719 85.914063 C 203.421875 84.988281 202.753906 83.621094 202.402344 82.875 L 201.761719 81.519531 L 204.128906 81.519531 L 204.929688 83.394531 C 205.367188 84.429688 205.726563 85.347656 205.726563 85.441406 C 205.726563 85.679688 205.945313 85.65625 205.953125 85.417969 C 205.957031 85.3125 206.320313 84.40625 206.765625 83.402344 L 207.566406 81.574219 L 208.691406 81.542969 L 209.8125 81.511719 L 208.269531 84.542969 L 206.722656 87.570313 L 206.722656 90.8125 L 204.730469 90.8125 Z M 186.261719 86.996094 L 186.261719 83.179688 L 183.605469 83.179688 L 183.605469 81.519531 L 191.015625 81.519531 L 191.015625 83.179688 L 188.363281 83.179688 L 188.363281 90.8125 L 186.261719 90.8125 Z M 169.671875 86.167969 L 169.671875 81.519531 L 171.769531 81.519531 L 171.769531 90.8125 L 169.671875 90.8125 Z M 153.90625 85.617188 C 154.566406 85.464844 154.960938 84.972656 154.960938 84.304688 C 154.960938 83.429688 154.472656 83.070313 153.292969 83.070313 L 152.636719 83.070313 L 152.636719 85.722656 L 153.050781 85.722656 C 153.277344 85.71875 153.664063 85.671875 153.90625 85.617188 Z M 150.535156 86.167969 L 150.535156 81.519531 L 152.558594 81.519531 C 155.320313 81.519531 156.285156 81.785156 156.847656 82.695313 C 157.144531 83.179688 157.257813 84.300781 157.0625 84.894531 C 156.875 85.453125 156.226563 86.15625 155.652344 86.410156 L 155.1875 86.617188 L 155.644531 87.027344 C 156 87.34375 157.410156 89.355469 158.207031 90.671875 C 158.273438 90.78125 158.019531 90.8125 157.078125 90.8125 L 155.867188 90.8125 L 155.007813 89.363281 C 153.949219 87.582031 153.660156 87.273438 153.070313 87.273438 L 152.636719 87.273438 L 152.636719 90.8125 L 150.535156 90.8125 Z M 93.90625 86.167969 L 93.90625 81.519531 L 99.214844 81.519531 L 99.214844 83.179688 L 96.007813 83.179688 L 96.007813 85.28125 L 98.992188 85.28125 L 98.992188 86.941406 L 96.007813 86.941406 L 96.007813 89.152344 L 99.433594 89.152344 L 99.433594 90.8125 L 93.90625 90.8125 Z M 46.695313 84.855469 C 46.960938 84.554688 47.015625 84.410156 46.984375 84.03125 C 46.9375 83.363281 46.46875 83.070313 45.441406 83.070313 L 44.683594 83.070313 L 44.683594 85.304688 L 45.527344 85.261719 C 46.316406 85.222656 46.386719 85.199219 46.695313 84.855469 Z M 46.652344 89.109375 C 47.316406 88.765625 47.554688 88.179688 47.289063 87.546875 C 47.074219 87.027344 46.589844 86.828125 45.519531 86.828125 L 44.683594 86.828125 L 44.683594 89.261719 L 45.519531 89.261719 C 46.019531 89.261719 46.476563 89.199219 46.652344 89.109375 Z M 42.582031 86.167969 L 42.582031 81.5 L 44.933594 81.546875 C 46.816406 81.582031 47.382813 81.628906 47.78125 81.78125 C 49.535156 82.457031 49.726563 84.5 48.125 85.46875 L 47.539063 85.820313 L 47.988281 85.953125 C 48.5625 86.125 49.207031 86.660156 49.398438 87.121094 C 49.484375 87.324219 49.550781 87.773438 49.550781 88.125 C 49.542969 89.242188 49.03125 90.003906 47.949219 90.5 C 47.433594 90.738281 47.21875 90.757813 44.988281 90.792969 L 42.582031 90.832031 Z M 24.996094 86.167969 L 24.996094 81.519531 L 30.417969 81.519531 L 30.417969 83.179688 L 27.097656 83.179688 L 27.097656 85.28125 L 30.195313 85.28125 L 30.195313 86.941406 L 27.097656 86.941406 L 27.097656 89.152344 L 30.636719 89.152344 L 30.636719 90.8125 L 24.996094 90.8125 Z M 2.597656 90.671875 C 2.550781 90.539063 0.421875 82.441406 0.269531 81.820313 L 0.195313 81.511719 L 2.46875 81.574219 L 3.164063 84.839844 C 3.546875 86.632813 3.863281 88.226563 3.871094 88.378906 C 3.875 88.53125 4.042969 88.03125 4.246094 87.273438 C 4.445313 86.511719 4.878906 84.90625 5.207031 83.707031 L 5.808594 81.523438 L 6.925781 81.519531 L 8.042969 81.519531 L 8.824219 84.753906 C 9.257813 86.535156 9.632813 88.089844 9.65625 88.210938 C 9.726563 88.566406 9.78125 88.332031 10.453125 85.003906 C 10.796875 83.300781 11.101563 81.820313 11.132813 81.714844 C 11.179688 81.546875 11.332031 81.519531 12.238281 81.519531 C 13.1875 81.519531 13.28125 81.539063 13.226563 81.714844 C 13.136719 82.003906 10.839844 90.714844 10.839844 90.765625 C 10.839844 90.792969 10.320313 90.8125 9.683594 90.8125 L 8.523438 90.8125 L 8.394531 90.339844 C 8.324219 90.082031 7.933594 88.578125 7.527344 86.996094 L 6.792969 84.121094 L 5.914063 87.464844 L 5.035156 90.8125 L 3.839844 90.8125 C 2.984375 90.8125 2.632813 90.773438 2.597656 90.671875 Z M 259.492188 88.894531 C 260.476563 88.375 260.964844 86.972656 260.703125 85.417969 C 260.441406 83.875 259.59375 83.105469 258.257813 83.203125 C 257.511719 83.253906 257.183594 83.449219 256.640625 84.15625 C 255.777344 85.28125 255.910156 87.550781 256.894531 88.53125 C 257.570313 89.207031 258.625 89.351563 259.492188 88.894531 Z M 256.738281 90.703125 C 254.6875 89.953125 253.554688 87.777344 253.949219 85.335938 C 254.257813 83.414063 255.386719 82.0625 257.089844 81.574219 C 258.089844 81.285156 259.671875 81.382813 260.5 81.78125 C 261.832031 82.421875 262.703125 83.691406 262.902344 85.289063 C 263.203125 87.679688 262.230469 89.707031 260.367188 90.570313 C 259.527344 90.960938 257.628906 91.027344 256.738281 90.703125 Z M 237.863281 90.695313 C 236.992188 90.386719 236.34375 89.90625 235.871094 89.21875 C 235.355469 88.460938 235.144531 87.828125 235.070313 86.808594 C 234.882813 84.234375 236.234375 82.167969 238.503906 81.5625 C 239.203125 81.378906 240.90625 81.363281 241.664063 81.539063 L 242.226563 81.667969 L 242.226563 82.65625 C 242.226563 83.554688 242.210938 83.636719 242.035156 83.566406 C 240.847656 83.070313 239.660156 83.042969 238.789063 83.484375 C 238.121094 83.824219 237.546875 84.496094 237.367188 85.144531 C 237.304688 85.371094 237.25 85.863281 237.25 86.234375 C 237.25 87.421875 237.695313 88.285156 238.578125 88.804688 C 239.023438 89.066406 239.1875 89.097656 240.125 89.097656 C 240.976563 89.097656 241.277344 89.050781 241.707031 88.851563 L 242.234375 88.609375 L 242.203125 89.570313 L 242.171875 90.535156 L 241.730469 90.691406 C 241.46875 90.785156 240.71875 90.863281 239.902344 90.886719 C 238.71875 90.921875 238.429688 90.890625 237.863281 90.695313 Z M 132.542969 90.769531 C 131.46875 90.417969 130.824219 89.746094 130.457031 88.597656 C 130.296875 88.097656 130.253906 87.425781 130.210938 84.757813 L 130.160156 81.519531 L 132.265625 81.519531 L 132.304688 84.644531 C 132.335938 87.507813 132.359375 87.808594 132.5625 88.210938 C 133.164063 89.417969 134.945313 89.503906 135.570313 88.355469 C 135.746094 88.03125 135.773438 87.621094 135.804688 84.757813 L 135.835938 81.519531 L 137.925781 81.519531 L 137.925781 84.429688 C 137.925781 86.054688 137.871094 87.628906 137.804688 87.992188 C 137.566406 89.28125 136.933594 90.179688 135.945313 90.628906 C 135.300781 90.917969 133.265625 91.003906 132.542969 90.769531 Z M 113.792969 90.714844 C 112.0625 90.144531 111.078125 88.738281 110.96875 86.664063 C 110.847656 84.441406 111.746094 82.78125 113.550781 81.890625 C 114.316406 81.511719 114.464844 81.476563 115.59375 81.429688 C 116.347656 81.398438 117.058594 81.433594 117.46875 81.519531 L 118.128906 81.660156 L 118.128906 82.652344 C 118.128906 83.554688 118.109375 83.636719 117.933594 83.566406 C 116.429688 82.941406 114.894531 83.082031 113.996094 83.933594 C 113.371094 84.527344 113.203125 85.003906 113.203125 86.230469 C 113.203125 87.277344 113.226563 87.378906 113.539063 87.886719 C 113.746094 88.222656 114.078125 88.554688 114.417969 88.761719 C 114.921875 89.074219 115.03125 89.097656 116.019531 89.097656 C 116.871094 89.09375 117.179688 89.046875 117.605469 88.851563 L 118.136719 88.609375 L 118.105469 89.570313 L 118.070313 90.535156 L 117.628906 90.691406 C 117.367188 90.785156 116.628906 90.863281 115.804688 90.886719 C 114.683594 90.914063 114.304688 90.882813 113.792969 90.714844 Z M 76.707031 90.847656 C 76.582031 90.820313 76.246094 90.722656 75.957031 90.628906 L 75.433594 90.460938 L 75.433594 89.476563 C 75.433594 88.933594 75.460938 88.488281 75.488281 88.488281 C 75.523438 88.488281 75.808594 88.632813 76.125 88.8125 C 77.289063 89.464844 78.917969 89.484375 79.414063 88.851563 C 79.535156 88.695313 79.636719 88.480469 79.636719 88.371094 C 79.636719 87.964844 79.039063 87.460938 77.980469 86.972656 C 76.605469 86.335938 76.144531 86.007813 75.804688 85.425781 C 75.375 84.695313 75.332031 83.808594 75.6875 83.035156 C 76.238281 81.828125 77.410156 81.34375 79.546875 81.4375 C 80.234375 81.464844 80.933594 81.546875 81.101563 81.613281 C 81.398438 81.734375 81.40625 81.753906 81.40625 82.671875 L 81.40625 83.609375 L 80.90625 83.386719 C 79.398438 82.722656 77.644531 83.023438 77.644531 83.953125 C 77.644531 84.382813 78.101563 84.75 79.429688 85.382813 C 80.894531 86.082031 81.4375 86.578125 81.691406 87.449219 C 81.839844 87.964844 81.851563 88.183594 81.75 88.6875 C 81.683594 89.023438 81.539063 89.449219 81.429688 89.640625 C 81.160156 90.109375 80.308594 90.65625 79.632813 90.800781 C 79.089844 90.917969 77.15625 90.949219 76.707031 90.847656 "/>
<path style=" stroke:none;fill-rule:nonzero;fill:rgb(19.599915%,28.199768%,30.999756%);fill-opacity:1;" d="M 252.515625 13.773438 L 252.515625 0.113281 L 259.371094 0.113281 L 259.371094 27.433594 L 252.515625 27.433594 Z M 105.1875 13.773438 L 105.1875 0.113281 L 112.042969 0.113281 L 112.042969 27.433594 L 105.1875 27.433594 Z M 93.90625 62.496094 L 93.90625 61.058594 L 106.183594 61.058594 L 106.183594 63.933594 L 93.90625 63.933594 Z M 181.503906 61.613281 L 181.503906 53.539063 L 188.363281 53.539063 L 188.363281 59.84375 L 198.316406 59.84375 L 198.316406 53.539063 L 205.285156 53.539063 L 205.285156 69.6875 L 198.316406 69.6875 L 198.316406 63.269531 L 188.363281 63.269531 L 188.363281 69.6875 L 181.503906 69.6875 Z M 160.90625 69.464844 C 158.605469 68.984375 157.484375 68.382813 156.914063 67.316406 C 156.679688 66.875 156.671875 66.769531 156.640625 61.792969 C 156.605469 56.09375 156.628906 55.886719 157.347656 55.085938 C 158.632813 53.664063 159.691406 53.539063 170.179688 53.539063 L 177.855469 53.539063 L 177.855469 56.964844 L 171.214844 56.964844 C 164.21875 56.964844 164.011719 56.980469 163.652344 57.46875 C 163.566406 57.585938 163.546875 58.804688 163.585938 61.609375 L 163.640625 65.589844 L 163.949219 65.894531 L 164.253906 66.203125 L 171.054688 66.230469 L 177.855469 66.261719 L 177.855469 69.6875 L 169.863281 69.675781 C 162.589844 69.664063 161.785156 69.648438 160.90625 69.464844 Z M 135.792969 69.519531 C 134.039063 69.222656 132.78125 68.71875 132.148438 68.058594 C 131.511719 67.390625 131.511719 67.398438 131.511719 61.691406 L 131.511719 56.457031 L 131.800781 55.875 C 132.300781 54.871094 133.328125 54.230469 135.160156 53.785156 C 135.777344 53.632813 137.070313 53.601563 144.257813 53.566406 L 152.636719 53.527344 L 152.636719 56.964844 L 146.25 56.964844 C 138.035156 56.964844 138.367188 56.886719 138.367188 58.816406 L 138.367188 59.84375 L 152.636719 59.84375 L 152.636719 63.269531 L 138.367188 63.269531 L 138.367188 64.382813 C 138.367188 65.402344 138.390625 65.515625 138.632813 65.757813 C 139.121094 66.25 139.390625 66.265625 146.195313 66.261719 L 152.636719 66.257813 L 152.636719 69.6875 L 144.644531 69.675781 C 138.625 69.667969 136.441406 69.628906 135.792969 69.519531 Z M 114.808594 63.324219 L 114.808594 56.964844 L 107.839844 56.964844 L 107.839844 53.539063 L 128.746094 53.539063 L 128.746094 56.964844 L 121.777344 56.964844 L 121.777344 69.6875 L 114.808594 69.6875 Z M 66.804688 61.613281 L 66.804688 53.539063 L 73.773438 53.539063 L 73.773438 59.84375 L 83.730469 59.84375 L 83.730469 53.539063 L 90.585938 53.539063 L 90.585938 69.6875 L 83.730469 69.6875 L 83.730469 63.269531 L 73.773438 63.269531 L 73.773438 69.6875 L 66.804688 69.6875 Z M 44.1875 69.566406 C 41.609375 69.179688 39.816406 68.226563 39.496094 67.070313 C 39.417969 66.796875 39.378906 64.855469 39.375 61.652344 C 39.375 57.46875 39.402344 56.585938 39.542969 56.1875 C 40.085938 54.652344 41.492188 53.9375 44.519531 53.652344 C 45.214844 53.585938 48.902344 53.539063 53.117188 53.539063 L 60.5 53.539063 L 60.5 56.960938 L 53.652344 56.992188 L 46.804688 57.019531 L 46.234375 57.558594 L 46.234375 65.605469 L 46.496094 65.867188 C 46.644531 66.011719 46.929688 66.164063 47.132813 66.199219 C 47.339844 66.238281 49.179688 66.253906 51.230469 66.234375 C 54.820313 66.203125 54.96875 66.191406 55.269531 65.96875 L 55.578125 65.734375 L 55.609375 63.121094 L 55.640625 60.503906 L 62.492188 60.503906 L 62.492188 63.527344 C 62.492188 66.003906 62.460938 66.644531 62.316406 67.066406 C 61.996094 68.007813 60.746094 68.863281 58.921875 69.386719 C 58.15625 69.605469 57.839844 69.617188 51.488281 69.640625 C 47.835938 69.652344 44.550781 69.621094 44.1875 69.566406 Z M 28.09375 61.613281 L 28.09375 53.539063 L 35.0625 53.539063 L 35.0625 69.6875 L 28.09375 69.6875 Z M 0 61.613281 L 0 53.539063 L 6.96875 53.539063 L 6.96875 59.84375 L 16.8125 59.84375 L 16.8125 53.539063 L 23.78125 53.539063 L 23.78125 69.6875 L 16.8125 69.6875 L 16.8125 63.269531 L 6.96875 63.269531 L 6.96875 69.6875 L 0 69.6875 Z M 359.910156 89.222656 L 359.910156 87.632813 L 358.421875 84.574219 L 356.933594 81.511719 L 359.261719 81.574219 L 359.984375 83.234375 C 360.378906 84.148438 360.769531 85.09375 360.847656 85.335938 C 360.964844 85.707031 361 85.742188 361.066406 85.558594 C 361.164063 85.285156 362.121094 83.019531 362.503906 82.15625 L 362.785156 81.519531 L 364.890625 81.519531 L 363.394531 84.507813 L 361.902344 87.492188 L 361.902344 90.8125 L 359.910156 90.8125 Z M 336.90625 86.164063 L 336.90625 81.511719 L 338.03125 81.542969 L 339.160156 81.574219 L 341.238281 84.769531 L 343.320313 87.964844 L 343.320313 81.519531 L 345.199219 81.519531 L 345.199219 90.820313 L 344.183594 90.789063 L 343.164063 90.757813 L 341.039063 87.511719 C 339.871094 85.726563 338.898438 84.25 338.878906 84.230469 C 338.859375 84.210938 338.859375 85.683594 338.878906 87.503906 L 338.914063 90.8125 L 336.90625 90.8125 Z M 321.753906 87.019531 C 321.753906 86.9375 321.5625 86.304688 321.328125 85.609375 C 321.09375 84.910156 320.835938 84.066406 320.753906 83.734375 C 320.660156 83.351563 320.585938 83.207031 320.558594 83.34375 C 320.53125 83.46875 320.269531 84.320313 319.972656 85.238281 C 319.675781 86.160156 319.429688 86.96875 319.429688 87.035156 C 319.429688 87.121094 319.804688 87.160156 320.59375 87.160156 C 321.46875 87.160156 321.753906 87.125 321.753906 87.019531 Z M 316.113281 90.75 C 316.113281 90.71875 316.816406 88.765625 317.671875 86.410156 C 318.53125 84.054688 319.285156 81.992188 319.34375 81.824219 L 319.453125 81.519531 L 320.644531 81.519531 C 321.679688 81.519531 321.851563 81.546875 321.917969 81.714844 C 321.960938 81.820313 322.640625 83.722656 323.433594 85.945313 C 324.222656 88.164063 324.941406 90.171875 325.023438 90.402344 L 325.175781 90.820313 L 322.925781 90.757813 L 322.609375 89.734375 L 322.296875 88.710938 L 318.90625 88.710938 L 318.59375 89.761719 L 318.277344 90.8125 L 317.195313 90.8125 C 316.597656 90.8125 316.113281 90.785156 316.113281 90.75 Z M 302.097656 85.90625 C 302.648438 85.671875 302.871094 85.347656 302.921875 84.699219 C 303.007813 83.628906 302.382813 83.089844 301.042969 83.074219 L 300.40625 83.070313 L 300.40625 86.054688 L 301.074219 86.054688 C 301.441406 86.054688 301.898438 85.988281 302.097656 85.90625 Z M 298.304688 86.15625 L 298.304688 81.496094 L 300.542969 81.546875 C 303.132813 81.605469 303.59375 81.714844 304.332031 82.453125 C 304.894531 83.015625 305.09375 83.65625 305.035156 84.707031 C 304.980469 85.664063 304.574219 86.386719 303.796875 86.910156 C 303.105469 87.375 302.667969 87.496094 301.429688 87.570313 L 300.40625 87.632813 L 300.40625 90.8125 L 298.304688 90.8125 Z M 275.078125 86.164063 L 275.078125 81.515625 L 276.597656 81.546875 L 278.117188 81.574219 L 279.132813 84.507813 C 279.691406 86.121094 280.183594 87.648438 280.226563 87.90625 C 280.300781 88.378906 280.496094 88.566406 280.496094 88.167969 C 280.496094 88.050781 280.988281 86.519531 281.589844 84.765625 L 282.679688 81.574219 L 284.132813 81.546875 L 285.585938 81.515625 L 285.585938 90.8125 L 283.570313 90.8125 L 283.609375 86.980469 C 283.644531 83.675781 283.628906 83.222656 283.503906 83.691406 C 283.425781 83.988281 282.855469 85.714844 282.234375 87.523438 L 281.109375 90.820313 L 280.28125 90.789063 L 279.457031 90.757813 L 278.371094 87.714844 C 277.773438 86.042969 277.203125 84.351563 277.109375 83.953125 C 277.015625 83.558594 276.929688 83.226563 276.914063 83.210938 C 276.902344 83.195313 276.910156 84.902344 276.9375 87 L 276.984375 90.8125 L 275.078125 90.8125 Z M 204.730469 89.175781 L 204.730469 87.539063 L 203.292969 84.628906 C 202.503906 83.03125 201.855469 81.675781 201.855469 81.617188 C 201.855469 81.554688 202.324219 81.527344 202.988281 81.542969 L 204.117188 81.574219 L 204.921875 83.457031 C 205.363281 84.492188 205.726563 85.421875 205.726563 85.53125 L 205.839844 85.722656 L 205.953125 85.53125 C 205.953125 85.421875 206.324219 84.492188 206.773438 83.457031 L 207.597656 81.574219 L 208.652344 81.542969 C 209.234375 81.527344 209.710938 81.546875 209.710938 81.589844 C 209.710938 81.632813 209.035156 82.980469 208.214844 84.582031 L 206.722656 87.492188 L 206.722656 90.8125 L 204.730469 90.8125 Z M 186.261719 86.996094 L 186.261719 83.179688 L 183.605469 83.179688 L 183.605469 81.519531 L 191.015625 81.519531 L 191.015625 83.179688 L 188.363281 83.179688 L 188.363281 90.8125 L 186.261719 90.8125 Z M 169.78125 86.167969 L 169.78125 81.519531 L 171.769531 81.519531 L 171.769531 90.8125 L 169.78125 90.8125 Z M 154.1875 85.542969 C 154.828125 85.289063 155.140625 84.609375 154.945313 83.894531 C 154.78125 83.304688 154.320313 83.070313 153.328125 83.070313 L 152.527344 83.070313 L 152.527344 85.722656 L 153.132813 85.722656 C 153.464844 85.722656 153.9375 85.644531 154.1875 85.542969 Z M 150.535156 86.167969 L 150.535156 81.519531 L 152.394531 81.519531 C 155.058594 81.519531 156.003906 81.742188 156.65625 82.515625 C 157.222656 83.191406 157.308594 84.359375 156.855469 85.246094 C 156.589844 85.769531 156.378906 85.964844 155.617188 86.382813 C 155.285156 86.566406 155.074219 86.714844 155.148438 86.71875 C 155.464844 86.722656 156.125 87.507813 157.113281 89.042969 C 157.691406 89.945313 158.167969 90.714844 158.167969 90.75 C 158.167969 90.78125 157.65625 90.808594 157.03125 90.808594 L 155.898438 90.804688 L 155.015625 89.304688 C 153.976563 87.546875 153.707031 87.273438 153.015625 87.273438 L 152.527344 87.273438 L 152.527344 90.8125 L 150.535156 90.8125 Z M 93.90625 86.167969 L 93.90625 81.519531 L 99.214844 81.519531 L 99.214844 83.179688 L 96.007813 83.179688 L 96.007813 85.28125 L 98.992188 85.28125 L 98.992188 86.941406 L 96.007813 86.941406 L 96.007813 89.152344 L 99.433594 89.152344 L 99.433594 90.8125 L 93.90625 90.8125 Z M 46.457031 85.113281 C 46.632813 85.023438 46.832031 84.851563 46.894531 84.734375 C 47.019531 84.5 47.046875 83.847656 46.9375 83.570313 C 46.816406 83.253906 46.28125 83.070313 45.464844 83.070313 L 44.683594 83.070313 L 44.683594 85.28125 L 45.410156 85.28125 C 45.839844 85.28125 46.265625 85.214844 46.457031 85.113281 Z M 46.851563 89.054688 C 47.519531 88.648438 47.621094 87.6875 47.050781 87.152344 C 46.800781 86.917969 46.648438 86.878906 45.726563 86.847656 L 44.683594 86.808594 L 44.683594 89.261719 L 45.597656 89.261719 C 46.292969 89.261719 46.589844 89.214844 46.851563 89.054688 Z M 42.695313 86.175781 L 42.695313 81.519531 L 44.539063 81.519531 C 47.304688 81.519531 48.285156 81.769531 48.855469 82.613281 C 49.550781 83.648438 49.140625 84.925781 47.90625 85.550781 L 47.394531 85.8125 L 47.835938 85.929688 C 49.410156 86.355469 50.03125 88.023438 49.152344 89.449219 C 48.890625 89.875 48.671875 90.058594 48.066406 90.371094 L 47.304688 90.757813 L 45 90.796875 L 42.695313 90.832031 Z M 24.996094 86.167969 L 24.996094 81.519531 L 30.304688 81.519531 L 30.304688 83.179688 L 27.097656 83.179688 L 27.097656 85.28125 L 30.085938 85.28125 L 30.085938 86.941406 L 27.097656 86.941406 L 27.097656 89.152344 L 30.527344 89.152344 L 30.527344 90.8125 L 24.996094 90.8125 Z M 2.507813 90.234375 C 2.414063 89.914063 1.886719 87.910156 1.328125 85.777344 C 0.773438 83.648438 0.296875 81.820313 0.265625 81.714844 C 0.210938 81.539063 0.3125 81.519531 1.3125 81.519531 L 2.414063 81.519531 L 2.582031 82.265625 C 2.988281 84.054688 3.871094 88.398438 3.878906 88.625 C 3.886719 88.761719 3.960938 88.550781 4.050781 88.15625 C 4.136719 87.761719 4.574219 86.121094 5.015625 84.507813 L 5.824219 81.574219 L 8.019531 81.511719 L 8.824219 84.863281 C 9.269531 86.707031 9.632813 88.300781 9.628906 88.40625 L 9.734375 88.597656 C 9.792969 88.597656 9.84375 88.476563 9.84375 88.328125 C 9.84375 88.066406 11.152344 81.613281 11.21875 81.546875 C 11.238281 81.527344 11.699219 81.527344 12.242188 81.542969 L 13.226563 81.574219 L 12.007813 86.195313 L 10.789063 90.8125 L 9.652344 90.8125 C 9.027344 90.8125 8.515625 90.789063 8.515625 90.765625 C 8.515625 90.738281 8.144531 89.28125 7.6875 87.527344 C 7.230469 85.777344 6.855469 84.214844 6.851563 84.066406 C 6.847656 83.914063 6.601563 84.734375 6.300781 85.890625 C 6 87.046875 5.589844 88.613281 5.386719 89.375 L 5.015625 90.757813 L 2.671875 90.820313 Z M 259.777344 88.75 C 260.679688 88.023438 261.03125 86.539063 260.652344 85.058594 C 260.328125 83.789063 259.617188 83.179688 258.453125 83.179688 C 257.007813 83.179688 256.191406 84.113281 256.078125 85.890625 C 256.011719 87.003906 256.226563 87.832031 256.742188 88.410156 C 257.292969 89.03125 257.640625 89.167969 258.5625 89.128906 C 259.257813 89.097656 259.40625 89.050781 259.777344 88.75 Z M 257.128906 90.808594 C 256.496094 90.648438 255.863281 90.292969 255.316406 89.785156 C 254.359375 88.90625 253.945313 87.820313 253.941406 86.207031 C 253.941406 84.617188 254.394531 83.492188 255.417969 82.550781 C 256.371094 81.671875 257.398438 81.34375 258.894531 81.4375 C 260.5625 81.542969 261.773438 82.375 262.496094 83.921875 C 262.78125 84.53125 262.84375 84.820313 262.886719 85.71875 C 262.972656 87.519531 262.558594 88.71875 261.507813 89.714844 C 260.628906 90.546875 259.898438 90.839844 258.601563 90.878906 C 258.023438 90.898438 257.359375 90.867188 257.128906 90.808594 Z M 238.136719 90.746094 C 236.472656 90.296875 235.402344 89.015625 235.121094 87.136719 C 234.976563 86.160156 235.140625 84.953125 235.53125 84.09375 C 236.074219 82.910156 237.414063 81.824219 238.699219 81.527344 C 239.335938 81.378906 240.921875 81.398438 241.617188 81.558594 L 242.171875 81.6875 L 242.234375 83.609375 L 241.625 83.394531 C 240.8125 83.109375 239.46875 83.105469 238.84375 83.390625 C 238.226563 83.671875 237.632813 84.3125 237.421875 84.921875 C 237.15625 85.710938 237.195313 86.984375 237.511719 87.664063 C 237.789063 88.261719 238.300781 88.761719 238.878906 89.003906 C 239.550781 89.285156 241.058594 89.171875 242.039063 88.765625 C 242.222656 88.6875 242.234375 88.753906 242.203125 89.609375 L 242.171875 90.535156 L 241.453125 90.722656 C 240.558594 90.953125 238.949219 90.964844 238.136719 90.746094 Z M 132.671875 90.773438 C 131.511719 90.390625 130.855469 89.734375 130.511719 88.621094 C 130.316406 87.984375 130.292969 87.585938 130.292969 84.714844 L 130.292969 81.519531 L 132.269531 81.519531 L 132.304688 84.699219 C 132.335938 87.570313 132.359375 87.921875 132.554688 88.308594 C 132.878906 88.960938 133.296875 89.171875 134.1875 89.128906 C 134.832031 89.09375 134.976563 89.046875 135.269531 88.769531 C 135.453125 88.589844 135.652344 88.269531 135.714844 88.054688 C 135.773438 87.835938 135.824219 86.277344 135.824219 84.589844 L 135.824219 81.519531 L 137.925781 81.519531 L 137.925781 84.3125 C 137.925781 88.09375 137.769531 88.921875 136.886719 89.898438 C 136.28125 90.570313 135.550781 90.839844 134.222656 90.882813 C 133.5 90.90625 132.960938 90.871094 132.671875 90.773438 Z M 113.90625 90.710938 C 112.265625 90.183594 111.277344 88.949219 111.011719 87.089844 C 110.636719 84.492188 112.191406 82.082031 114.601563 81.527344 C 115.238281 81.378906 116.820313 81.398438 117.519531 81.558594 L 118.070313 81.6875 L 118.105469 82.648438 L 118.136719 83.609375 L 117.527344 83.394531 C 116.601563 83.070313 115.347656 83.097656 114.617188 83.460938 C 114.007813 83.765625 113.527344 84.304688 113.300781 84.941406 C 113.121094 85.441406 113.109375 86.835938 113.277344 87.398438 C 113.449219 87.972656 114.085938 88.691406 114.636719 88.945313 C 115.394531 89.289063 116.871094 89.207031 117.9375 88.765625 C 118.121094 88.6875 118.132813 88.753906 118.105469 89.609375 L 118.070313 90.535156 L 117.351563 90.722656 C 116.367188 90.976563 114.71875 90.96875 113.90625 90.710938 Z M 76.59375 90.804688 C 75.523438 90.546875 75.542969 90.570313 75.542969 89.464844 L 75.542969 88.472656 L 75.886719 88.71875 C 76.316406 89.023438 77.425781 89.375 77.960938 89.375 C 79.4375 89.371094 80.121094 88.476563 79.265625 87.667969 C 79.058594 87.472656 78.425781 87.121094 77.851563 86.882813 C 75.964844 86.09375 75.195313 84.96875 75.542969 83.507813 C 75.789063 82.488281 76.59375 81.804688 77.882813 81.519531 C 78.605469 81.359375 80.488281 81.425781 81.046875 81.628906 L 81.40625 81.761719 L 81.40625 83.628906 L 81.15625 83.464844 C 80.847656 83.261719 79.703125 82.957031 79.253906 82.960938 C 78.347656 82.960938 77.644531 83.382813 77.644531 83.929688 C 77.644531 84.457031 77.960938 84.734375 79.246094 85.335938 C 81.210938 86.261719 81.738281 86.871094 81.738281 88.210938 C 81.738281 89.367188 81.242188 90.109375 80.132813 90.605469 C 79.683594 90.804688 79.34375 90.859375 78.308594 90.882813 C 77.609375 90.898438 76.839844 90.863281 76.59375 90.804688 "/>
</g>
</svg>
